<?xml version="1.0" encoding="UTF-8"?>
<svg version="1.1" xmlns="http://www.w3.org/2000/svg" width="795" height="794">
<path d="M0 0 C1.79555216 1.55524518 3.56507951 3.14086459 5.3125 4.75 C5.83440918 5.22953125 6.35631836 5.7090625 6.89404297 6.203125 C21.92473131 20.17121554 32.08214042 36.60768459 38.6875 56 C38.92621826 56.69569092 39.16493652 57.39138184 39.41088867 58.1081543 C48.28222968 85.63979162 44.45535422 117.7286091 31.53515625 143.359375 C16.62600353 171.47799047 -8.38561177 191.2699143 -38.58203125 200.56640625 C-43.24366354 201.93896858 -47.86830751 203.09089197 -52.6875 203.75 C-53.44417969 203.85957031 -54.20085937 203.96914063 -54.98046875 204.08203125 C-68.96196711 205.79265503 -83.42842552 205.11304524 -97.1640625 201.94921875 C-139.87501161 192.13221411 -190.02973223 204.78698718 -226.75 227.5 C-244.30208737 238.65129548 -260.76462239 252.00306964 -275.94140625 266.19140625 C-278.58714603 268.65649808 -281.28506077 271.04917 -284 273.4375 C-288.27183508 277.28147242 -292.01700203 281.33759287 -295.6875 285.75 C-296.45835937 286.63300781 -297.22921875 287.51601563 -298.0234375 288.42578125 C-302.63743112 293.7851123 -306.93353065 299.25575689 -310.875 305.125 C-311.27380371 305.69557129 -311.67260742 306.26614258 -312.08349609 306.85400391 C-313.84085565 309.55927735 -314.68571717 311.41750141 -314.703125 314.6640625 C-313.37225977 318.70784533 -311.45833546 322.12391152 -309.25 325.75 C-308.80188965 326.49548096 -308.3537793 327.24096191 -307.89208984 328.0090332 C-290.45421318 356.63606158 -266.98437693 381.18494342 -237.6875 397.75 C-237.07003906 398.10513672 -236.45257813 398.46027344 -235.81640625 398.82617188 C-211.75048904 412.57472062 -184.96397561 420.4494126 -157.6875 424.75 C-156.58100098 424.92789063 -156.58100098 424.92789063 -155.45214844 425.109375 C-144.34379469 426.80669508 -133.21361256 426.92805934 -122 426.9375 C-121.31079468 426.93858765 -120.62158936 426.93967529 -119.91149902 426.9407959 C-111.72082932 426.93933215 -103.58673391 426.67454885 -95.41493225 426.12109375 C-60.07926034 423.74020825 -28.8953842 430.26263578 -1.6875 453.75 C19.25229715 472.28793668 33.69777741 498.67406479 36.3125 526.75 C38.05932811 556.52709023 32.43474583 587.36918993 12.29296875 610.56640625 C11.63941406 611.28699219 10.98585938 612.00757813 10.3125 612.75 C9.62800781 613.56339844 8.94351563 614.37679687 8.23828125 615.21484375 C-11.63191124 638.36700699 -39.55694846 651.24170126 -69.6875 653.75 C-102.18110214 655.63800746 -131.30466452 644.35576508 -155.875 623.5 C-172.09082866 608.37587738 -184.1100815 587.95816889 -188.625 566.25 C-194.34149782 539.23698888 -213.89101744 514.22850297 -232.6875 494.75 C-233.52410156 493.85023438 -234.36070312 492.95046875 -235.22265625 492.0234375 C-272.82754622 452.66024951 -335.07515067 429.16844006 -388.97167969 427.65795898 C-392.46093456 427.61672593 -395.94803867 427.61340711 -399.4375 427.625 C-400.61699219 427.62113281 -401.79648437 427.61726563 -403.01171875 427.61328125 C-408.69740094 427.61967684 -414.05991014 427.9129443 -419.6875 428.75 C-455.2196852 430.53463007 -485.54558353 421.33309583 -512.23046875 397.4765625 C-531.59226661 379.01453838 -545.68423111 350.79645703 -546.6875 323.75 C-546.7390625 322.47253906 -546.790625 321.19507813 -546.84375 319.87890625 C-547.70941741 287.53670964 -536.28808206 257.84595858 -514.21875 234.18359375 C-490.5944084 211.47068509 -460.95514541 200.15157836 -428.35546875 200.515625 C-423.53102552 200.67437065 -418.87242556 201.41525076 -414.125 202.25 C-381.26790545 207.86527746 -344.7381377 198.62384829 -313.6875 187.75 C-313.01251465 187.51845215 -312.3375293 187.2869043 -311.64208984 187.04833984 C-271.87824949 173.30962802 -236.58798639 147.74753572 -211.6875 113.75 C-210.96699463 112.78006104 -210.96699463 112.78006104 -210.23193359 111.79052734 C-197.47518475 94.5533594 -185.75832704 75.86850324 -179.25 55.3125 C-169.59562609 25.21726927 -148.74453322 2.70585476 -121.19140625 -12.1328125 C-82.99039738 -31.53938151 -33.61155235 -26.54825512 0 0 Z " fill="#FFFFFF" transform="translate(640.6875,85.25)"/>
</svg>
